<svg width="720" height="520" viewBox="0 0 720 520" fill="none" xmlns="http://www.w3.org/2000/svg"><defs><linearGradient id="b" x1="0" y1="0" x2="720" y2="520"><stop stop-color="#100F1B"/><stop offset="1" stop-color="#16372F"/></linearGradient><linearGradient id="skin" x1="208" y1="106" x2="514" y2="422"><stop stop-color="#FFE7CC"/><stop offset="1" stop-color="#FF88A9"/></linearGradient></defs><rect width="720" height="520" rx="44" fill="url(#b)"/><circle cx="574" cy="100" r="180" fill="#18B7FF" opacity=".14"/><text x="70" y="112" fill="#F8FFF9" font-family="Arial" font-size="30" font-weight="800">Drama character kit</text><text x="70" y="146" fill="#9DB8C2" font-family="Arial" font-size="16">identity · expression · close-up · consistency</text><g transform="translate(86 188)"><rect width="126" height="164" rx="26" fill="#F8FFF9" opacity=".1"/><circle cx="63" cy="66" r="38" fill="url(#skin)"/><path d="M29 58c16-42 60-49 81-12-23-3-44 3-81 12z" fill="#1A1826"/><rect x="36" y="112" width="54" height="36" rx="18" fill="#55F5B6"/></g><g transform="translate(234 188)"><rect width="126" height="164" rx="26" fill="#F8FFF9" opacity=".16"/><circle cx="63" cy="66" r="38" fill="url(#skin)"/><path d="M32 54c18-38 61-45 76-9-26-2-48 2-76 9z" fill="#1A1826"/><path d="M45 92c10 10 26 10 36 0" stroke="#7A2636" stroke-width="6" stroke-linecap="round"/></g><g transform="translate(382 188)"><rect width="126" height="164" rx="26" fill="#F8FFF9" opacity=".1"/><circle cx="63" cy="66" r="38" fill="url(#skin)"/><path d="M30 63c11-45 54-59 83-21-24-5-50 4-83 21z" fill="#1A1826"/><circle cx="50" cy="68" r="5" fill="#101820"/><circle cx="78" cy="68" r="5" fill="#101820"/></g><g transform="translate(530 188)"><rect width="126" height="164" rx="26" fill="#F8FFF9" opacity=".16"/><circle cx="63" cy="66" r="38" fill="url(#skin)"/><path d="M34 52c21-32 59-38 76-4-29-3-45 4-76 4z" fill="#1A1826"/><rect x="36" y="115" width="56" height="14" rx="7" fill="#18B7FF"/></g></svg>
