<svg width="720" height="520" viewBox="0 0 720 520" fill="none" xmlns="http://www.w3.org/2000/svg"><defs><linearGradient id="b" x1="0" y1="0" x2="720" y2="520"><stop stop-color="#F8FBF7"/><stop offset="1" stop-color="#E3F7EF"/></linearGradient><linearGradient id="g" x1="132" y1="120" x2="590" y2="418"><stop stop-color="#0F2330"/><stop offset="1" stop-color="#17B6FF"/></linearGradient></defs><rect width="720" height="520" rx="44" fill="url(#b)"/><rect x="76" y="64" width="568" height="392" rx="34" fill="white" stroke="#D9E7E2"/><text x="108" y="122" fill="#0F2330" font-family="Arial" font-size="28" font-weight="800">E-commerce set</text><text x="108" y="154" fill="#698195" font-family="Arial" font-size="16">hero · details · top view · exploded</text><g transform="translate(110 190)"><rect width="136" height="168" rx="24" fill="#0F2330"/><ellipse cx="68" cy="82" rx="42" ry="58" fill="url(#g)"/><rect x="38" y="128" width="60" height="12" rx="6" fill="#55F5B6"/></g><g transform="translate(274 188)"><rect width="136" height="168" rx="24" fill="#F1F8F5"/><rect x="34" y="42" width="68" height="84" rx="20" fill="#101D27"/><circle cx="68" cy="82" r="19" fill="#55F5B6"/><path d="M40 144h56" stroke="#18B7FF" stroke-width="12" stroke-linecap="round"/></g><g transform="translate(438 188)"><rect width="136" height="168" rx="24" fill="#F1F8F5"/><path d="M32 104c18-42 54-66 90-58" stroke="#101D27" stroke-width="18" stroke-linecap="round"/><path d="M30 132h86" stroke="#18B7FF" stroke-width="14" stroke-linecap="round"/><circle cx="106" cy="48" r="14" fill="#55F5B6"/></g></svg>
