<svg width="720" height="520" viewBox="0 0 720 520" fill="none" xmlns="http://www.w3.org/2000/svg"><defs><linearGradient id="b" x1="0" y1="0" x2="720" y2="520"><stop stop-color="#071923"/><stop offset="1" stop-color="#173A31"/></linearGradient><linearGradient id="a" x1="84" y1="86" x2="612" y2="436"><stop stop-color="#55F5B6"/><stop offset="1" stop-color="#18B7FF"/></linearGradient></defs><rect width="720" height="520" rx="44" fill="url(#b)"/><circle cx="118" cy="86" r="180" fill="#55F5B6" opacity=".12"/><circle cx="628" cy="446" r="210" fill="#18B7FF" opacity=".16"/><rect x="72" y="72" width="576" height="376" rx="32" fill="#F8FFF9" opacity=".92"/><text x="104" y="126" fill="#0F2330" font-family="Arial" font-size="27" font-weight="800">Character turntable</text><text x="104" y="158" fill="#557086" font-family="Arial" font-size="16">front · side · back · top</text><g transform="translate(92 190)"><rect width="120" height="164" rx="22" fill="#0D2430"/><path d="M59 32c25 0 41 22 41 52 0 34-18 64-41 64S18 118 18 84c0-30 16-52 41-52z" fill="url(#a)"/><circle cx="60" cy="58" r="20" fill="#F8FFF9"/></g><g transform="translate(224 190)"><rect width="120" height="164" rx="22" fill="#EAF7F4"/><path d="M70 35c20 9 31 30 25 57-7 34-28 58-52 53-24-4-34-36-27-69 6-29 29-50 54-41z" fill="#1FB7E8"/><circle cx="62" cy="59" r="20" fill="#0D2430" opacity=".82"/></g><g transform="translate(356 190)"><rect width="120" height="164" rx="22" fill="#0D2430"/><path d="M61 31c24 0 42 22 42 56 0 36-19 63-42 63S19 123 19 87c0-34 18-56 42-56z" fill="#CFEAE4"/><rect x="36" y="55" width="50" height="73" rx="24" fill="#58E8B2"/></g><g transform="translate(488 190)"><rect width="120" height="164" rx="22" fill="#EAF7F4"/><circle cx="60" cy="76" r="46" fill="#1A8DFF"/><rect x="27" y="124" width="66" height="14" rx="7" fill="#0D2430" opacity=".28"/></g></svg>
