<svg width="720" height="520" viewBox="0 0 720 520" fill="none" xmlns="http://www.w3.org/2000/svg"><defs><linearGradient id="b" x1="0" y1="0" x2="720" y2="520"><stop stop-color="#FFF7E8"/><stop offset="1" stop-color="#DDF7EC"/></linearGradient></defs><rect width="720" height="520" rx="44" fill="url(#b)"/><text x="76" y="104" fill="#102430" font-family="Arial" font-size="30" font-weight="800">Picture book</text><text x="76" y="138" fill="#657C8F" font-family="Arial" font-size="16">story · character · pages · consistency</text><rect x="94" y="178" width="220" height="244" rx="26" fill="#FFFFFF" stroke="#D5E8DF"/><rect x="338" y="178" width="220" height="244" rx="26" fill="#FFFFFF" stroke="#D5E8DF"/><path d="M130 360c34-58 72-82 112-74 32 6 47 31 54 74" fill="#CFEFE5"/><circle cx="202" cy="260" r="46" fill="#FFFFFF" stroke="#55F5B6" stroke-width="12"/><path d="M184 221c-6-36 7-56 22-34 11-30 31-21 23 20" stroke="#55F5B6" stroke-width="16" stroke-linecap="round"/><circle cx="188" cy="262" r="5" fill="#102430"/><circle cx="218" cy="262" r="5" fill="#102430"/><path d="M378 350c42-60 83-76 124-34" stroke="#18B7FF" stroke-width="20" stroke-linecap="round"/><circle cx="452" cy="258" r="54" fill="#FFEBAA"/><path d="M407 247c30-45 78-41 102 0" stroke="#102430" stroke-width="16" stroke-linecap="round"/></svg>
