<svg width="720" height="520" viewBox="0 0 720 520" fill="none" xmlns="http://www.w3.org/2000/svg"><defs><linearGradient id="sky" x1="0" y1="0" x2="720" y2="520"><stop stop-color="#FFB15C"/><stop offset=".45" stop-color="#0B2545"/><stop offset="1" stop-color="#071923"/></linearGradient></defs><rect width="720" height="520" rx="44" fill="url(#sky)"/><circle cx="116" cy="116" r="72" fill="#FFEFC8" opacity=".78"/><text x="70" y="102" fill="#F8FFF9" font-family="Arial" font-size="30" font-weight="800">Scene variations</text><text x="70" y="136" fill="#D9E8EE" font-family="Arial" font-size="16">base scene · evening · night · rain</text><g fill="#08131D"><rect x="78" y="238" width="80" height="186" rx="8"/><rect x="178" y="190" width="92" height="234" rx="8"/><rect x="304" y="256" width="74" height="168" rx="8"/><rect x="410" y="206" width="104" height="218" rx="8"/><rect x="550" y="266" width="70" height="158" rx="8"/></g><g fill="#55F5B6" opacity=".84"><rect x="100" y="270" width="20" height="14" rx="3"/><rect x="207" y="232" width="22" height="14" rx="3"/><rect x="438" y="248" width="24" height="14" rx="3"/><rect x="574" y="298" width="18" height="12" rx="3"/></g><path d="M54 424h612" stroke="#18B7FF" stroke-width="20" stroke-linecap="round" opacity=".55"/><path d="M132 444c96-34 177-34 248 0s143 34 220 0" stroke="#55F5B6" stroke-width="8" stroke-linecap="round" opacity=".82"/></svg>
