<svg width="720" height="520" viewBox="0 0 720 520" fill="none" xmlns="http://www.w3.org/2000/svg"><defs><linearGradient id="b" x1="0" y1="0" x2="720" y2="520"><stop stop-color="#071923"/><stop offset="1" stop-color="#0D3A4D"/></linearGradient><linearGradient id="p" x1="116" y1="168" x2="620" y2="404"><stop stop-color="#55F5B6"/><stop offset="1" stop-color="#18B7FF"/></linearGradient></defs><rect width="720" height="520" rx="44" fill="url(#b)"/><text x="76" y="104" fill="#F8FFF9" font-family="Arial" font-size="30" font-weight="800">Text to video</text><text x="76" y="138" fill="#A5C5D1" font-family="Arial" font-size="16">prompt · ratio · duration · video result</text><rect x="92" y="188" width="196" height="152" rx="26" fill="#F8FFF9" opacity=".12"/><rect x="110" y="218" width="132" height="16" rx="8" fill="#F8FFF9" opacity=".72"/><rect x="110" y="250" width="156" height="14" rx="7" fill="#F8FFF9" opacity=".45"/><rect x="110" y="282" width="92" height="14" rx="7" fill="#55F5B6"/><path d="M312 264h92" stroke="#55F5B6" stroke-width="10" stroke-linecap="round"/><path d="M394 244l34 20-34 20" stroke="#55F5B6" stroke-width="10" stroke-linecap="round" stroke-linejoin="round"/><rect x="446" y="168" width="188" height="192" rx="32" fill="url(#p)"/><path d="M520 224l76 40-76 40z" fill="#071923" opacity=".78"/><rect x="464" y="384" width="124" height="18" rx="9" fill="#F8FFF9" opacity=".42"/><rect x="464" y="384" width="58" height="18" rx="9" fill="#55F5B6"/></svg>
