<svg width="1280" height="720" viewBox="0 0 1280 720" fill="none" xmlns="http://www.w3.org/2000/svg">
  <defs>
    <pattern id="grid" width="28" height="28" patternUnits="userSpaceOnUse">
      <path d="M28 0H0V28" stroke="#234155" stroke-width="1" opacity="0.45"/>
      <circle cx="1" cy="1" r="1" fill="#3B82F6" opacity="0.35"/>
    </pattern>
    <linearGradient id="node" x1="0" y1="0" x2="280" y2="160" gradientUnits="userSpaceOnUse">
      <stop stop-color="#1E293B"/>
      <stop offset="1" stop-color="#0F172A"/>
    </linearGradient>
    <linearGradient id="accent" x1="0" y1="0" x2="220" y2="0" gradientUnits="userSpaceOnUse">
      <stop stop-color="#22C55E"/>
      <stop offset="1" stop-color="#00A3FF"/>
    </linearGradient>
  </defs>
  <rect width="1280" height="720" rx="44" fill="#061321"/>
  <rect width="1280" height="720" rx="44" fill="url(#grid)"/>
  <rect x="0" y="0" width="1280" height="74" fill="#0B1726" opacity="0.96"/>
  <text x="88" y="46" fill="#E2E8F0" font-family="Arial, sans-serif" font-size="20" font-weight="800">YUFENG Canvas - node workflow</text>
  <rect x="36" y="104" width="58" height="410" rx="28" fill="#0F172A" stroke="#2B435A"/>
  <rect x="48" y="122" width="34" height="34" rx="12" fill="#22C55E"/>
  <text x="59" y="146" fill="white" font-family="Arial, sans-serif" font-size="25" font-weight="800">+</text>
  <text x="56" y="198" fill="#E2E8F0" font-family="Arial, sans-serif" font-size="22">Aa</text>
  <text x="55" y="254" fill="#E2E8F0" font-family="Arial, sans-serif" font-size="22">◫</text>
  <text x="54" y="310" fill="#E2E8F0" font-family="Arial, sans-serif" font-size="22">◉</text>
  <text x="53" y="366" fill="#E2E8F0" font-family="Arial, sans-serif" font-size="22">▻</text>

  <path d="M360 270 C450 270 470 210 560 210" stroke="#22C55E" stroke-width="4" fill="none"/>
  <path d="M825 210 C910 210 930 290 1012 290" stroke="#00A3FF" stroke-width="4" fill="none"/>
  <path d="M825 210 C910 210 928 438 1012 438" stroke="#64748B" stroke-width="3" fill="none" opacity="0.8"/>

  <g transform="translate(150 180)">
    <rect width="260" height="180" rx="22" fill="url(#node)" stroke="#334155"/>
    <text x="24" y="42" fill="#93C5FD" font-family="Arial, sans-serif" font-size="17" font-weight="800">Prompt</text>
    <rect x="22" y="62" width="216" height="76" rx="14" fill="#334155"/>
    <text x="40" y="92" fill="#E2E8F0" font-family="Arial, sans-serif" font-size="15">雨夜城市里，一只发光</text>
    <text x="40" y="116" fill="#E2E8F0" font-family="Arial, sans-serif" font-size="15">小狐狸穿过巷子...</text>
    <rect x="22" y="150" width="80" height="22" rx="11" fill="#0B1726"/>
    <text x="39" y="166" fill="#FDE68A" font-family="Arial, sans-serif" font-size="12">AI polish</text>
  </g>

  <g transform="translate(560 130)">
    <rect width="280" height="200" rx="22" fill="url(#node)" stroke="#334155"/>
    <text x="24" y="42" fill="#93C5FD" font-family="Arial, sans-serif" font-size="17" font-weight="800">Image model</text>
    <text x="24" y="76" fill="#E2E8F0" font-family="Arial, sans-serif" font-size="15">gpt-image-2-sp</text>
    <text x="24" y="110" fill="#E2E8F0" font-family="Arial, sans-serif" font-size="15">1024 x 1024</text>
    <rect x="24" y="144" width="232" height="36" rx="13" fill="url(#accent)"/>
    <text x="103" y="168" fill="white" font-family="Arial, sans-serif" font-size="15" font-weight="800">Generate</text>
  </g>

  <g transform="translate(1010 170)">
    <rect width="210" height="170" rx="24" fill="#F8FAFC" stroke="#BFDBFE"/>
    <rect x="22" y="24" width="166" height="104" rx="18" fill="#0F172A"/>
    <path d="M46 104 L82 64 L112 94 L132 76 L168 116 H46Z" fill="#00A3FF"/>
    <circle cx="138" cy="56" r="14" fill="#22C55E"/>
    <text x="58" y="150" fill="#0F172A" font-family="Arial, sans-serif" font-size="15" font-weight="800">Image result</text>
  </g>

  <g transform="translate(1010 378)">
    <rect width="210" height="170" rx="24" fill="#F8FAFC" stroke="#BBF7D0"/>
    <rect x="22" y="24" width="166" height="104" rx="18" fill="#111827"/>
    <path d="M88 58 L138 76 L88 96V58Z" fill="#22C55E"/>
    <text x="60" y="150" fill="#0F172A" font-family="Arial, sans-serif" font-size="15" font-weight="800">Video result</text>
  </g>

  <rect x="334" y="625" width="612" height="54" rx="27" fill="#0B1726" stroke="#334155"/>
  <text x="370" y="659" fill="#E2E8F0" font-family="Arial, sans-serif" font-size="17">Runtime logs show requests, task IDs, failures and timeouts.</text>
</svg>
