<svg width="1024" height="1024" viewBox="0 0 1024 1024" fill="none" xmlns="http://www.w3.org/2000/svg">
  <defs>
    <linearGradient id="bg" x1="132" y1="102" x2="900" y2="924" gradientUnits="userSpaceOnUse">
      <stop stop-color="#05131B"/>
      <stop offset="0.52" stop-color="#09252B"/>
      <stop offset="1" stop-color="#112B23"/>
    </linearGradient>
    <linearGradient id="mark" x1="232" y1="236" x2="790" y2="806" gradientUnits="userSpaceOnUse">
      <stop stop-color="#55F5B6"/>
      <stop offset="0.45" stop-color="#F7FFF7"/>
      <stop offset="1" stop-color="#18B7FF"/>
    </linearGradient>
    <linearGradient id="orbit" x1="164" y1="238" x2="846" y2="758" gradientUnits="userSpaceOnUse">
      <stop stop-color="#1BE7C6"/>
      <stop offset="1" stop-color="#2F83FF"/>
    </linearGradient>
    <filter id="softGlow" x="-30%" y="-30%" width="160%" height="160%" color-interpolation-filters="sRGB">
      <feGaussianBlur stdDeviation="22" result="blur"/>
      <feColorMatrix in="blur" type="matrix" values="0 0 0 0 0.08 0 0 0 0 0.9 0 0 0 0 0.78 0 0 0 0.58 0"/>
      <feBlend in2="SourceGraphic" mode="screen"/>
    </filter>
    <filter id="shadow" x="-25%" y="-25%" width="150%" height="150%" color-interpolation-filters="sRGB">
      <feDropShadow dx="0" dy="24" stdDeviation="30" flood-color="#02080C" flood-opacity="0.55"/>
    </filter>
  </defs>

  <rect x="72" y="72" width="880" height="880" rx="236" fill="url(#bg)"/>
  <circle cx="316" cy="282" r="220" fill="#1BE7C6" opacity="0.16"/>
  <circle cx="766" cy="744" r="260" fill="#1C7BFF" opacity="0.18"/>
  <circle cx="512" cy="512" r="330" stroke="#D9FFF4" stroke-opacity="0.06" stroke-width="2"/>

  <g filter="url(#softGlow)">
    <path d="M210 584C210 391 366 236 559 236C650 236 733 271 795 329" stroke="url(#orbit)" stroke-width="24" stroke-linecap="round" opacity="0.82"/>
    <path d="M812 440C828 496 825 557 802 613" stroke="url(#orbit)" stroke-width="18" stroke-linecap="round" opacity="0.62"/>
    <path d="M302 730C365 775 441 799 520 799C596 799 668 777 728 736" stroke="url(#orbit)" stroke-width="18" stroke-linecap="round" opacity="0.52"/>
  </g>

  <g filter="url(#shadow)">
    <path d="M284 310L512 544L740 310" stroke="#021016" stroke-width="142" stroke-linecap="round" stroke-linejoin="round" opacity="0.55"/>
    <path d="M512 544L512 786" stroke="#021016" stroke-width="142" stroke-linecap="round" opacity="0.55"/>
    <path d="M284 310L512 544L740 310" stroke="url(#mark)" stroke-width="104" stroke-linecap="round" stroke-linejoin="round"/>
    <path d="M512 544L512 786" stroke="url(#mark)" stroke-width="104" stroke-linecap="round"/>
  </g>

  <path d="M338 363L512 544L688 363" stroke="#F8FFF9" stroke-width="34" stroke-linecap="round" stroke-linejoin="round" opacity="0.72"/>
  <circle cx="284" cy="310" r="31" fill="#55F5B6"/>
  <circle cx="740" cy="310" r="31" fill="#18B7FF"/>
  <circle cx="512" cy="786" r="31" fill="#F7FFF7"/>
</svg>
