<svg width="1280" height="720" viewBox="0 0 1280 720" fill="none" xmlns="http://www.w3.org/2000/svg">
  <defs>
    <linearGradient id="bg" x1="0" y1="0" x2="1280" y2="720" gradientUnits="userSpaceOnUse">
      <stop stop-color="#07111F"/>
      <stop offset="1" stop-color="#0D2B2C"/>
    </linearGradient>
    <linearGradient id="accent" x1="160" y1="0" x2="980" y2="720" gradientUnits="userSpaceOnUse">
      <stop stop-color="#22C55E"/>
      <stop offset="1" stop-color="#00A3FF"/>
    </linearGradient>
  </defs>
  <rect width="1280" height="720" rx="44" fill="url(#bg)"/>
  <circle cx="1080" cy="120" r="210" fill="#22C55E" opacity="0.13"/>
  <circle cx="190" cy="520" r="260" fill="#00A3FF" opacity="0.13"/>
  <rect x="200" y="70" width="880" height="580" rx="34" fill="#F8FAFC"/>
  <text x="252" y="130" fill="#0F172A" font-family="Arial, sans-serif" font-size="34" font-weight="900">Bring your own API and models</text>
  <text x="252" y="166" fill="#64748B" font-family="Arial, sans-serif" font-size="18">Users configure their own DataEyes key, model names and image protocol.</text>

  <rect x="252" y="210" width="776" height="92" rx="22" fill="#E0F2FE"/>
  <text x="282" y="246" fill="#0369A1" font-family="Arial, sans-serif" font-size="18" font-weight="800">Default Key</text>
  <rect x="282" y="262" width="430" height="20" rx="10" fill="#BAE6FD"/>
  <rect x="740" y="246" width="230" height="36" rx="18" fill="url(#accent)"/>
  <text x="789" y="270" fill="white" font-family="Arial, sans-serif" font-size="15" font-weight="800">Save configuration</text>

  <g transform="translate(252 332)">
    <rect width="776" height="78" rx="22" fill="#ECFDF5"/>
    <text x="28" y="35" fill="#166534" font-family="Arial, sans-serif" font-size="17" font-weight="800">Text models</text>
    <rect x="28" y="48" width="126" height="22" rx="11" fill="#DCFCE7"/>
    <text x="44" y="64" fill="#166534" font-family="Arial, sans-serif" font-size="12" font-weight="800">gpt-4o-mini</text>
    <rect x="170" y="48" width="118" height="22" rx="11" fill="#DCFCE7"/>
    <text x="186" y="64" fill="#166534" font-family="Arial, sans-serif" font-size="12" font-weight="800">deepseek-chat</text>
  </g>

  <g transform="translate(252 430)">
    <rect width="776" height="98" rx="22" fill="#EFF6FF"/>
    <text x="28" y="35" fill="#1D4ED8" font-family="Arial, sans-serif" font-size="17" font-weight="800">Image models</text>
    <rect x="28" y="52" width="132" height="24" rx="12" fill="#DBEAFE"/>
    <text x="44" y="69" fill="#1D4ED8" font-family="Arial, sans-serif" font-size="12" font-weight="800">gpt-image-2-sp</text>
    <rect x="176" y="52" width="250" height="24" rx="12" fill="#DBEAFE"/>
    <text x="192" y="69" fill="#1D4ED8" font-family="Arial, sans-serif" font-size="12" font-weight="800">gemini-3.1-flash-image-preview</text>
    <rect x="500" y="48" width="178" height="32" rx="16" fill="#0F172A"/>
    <text x="526" y="69" fill="white" font-family="Arial, sans-serif" font-size="13" font-weight="800">Chat image protocol</text>
  </g>

  <g transform="translate(252 548)">
    <rect width="776" height="72" rx="22" fill="#FFF7ED"/>
    <text x="28" y="35" fill="#9A3412" font-family="Arial, sans-serif" font-size="17" font-weight="800">Video models</text>
    <rect x="166" y="22" width="160" height="28" rx="14" fill="#FED7AA"/>
    <text x="184" y="41" fill="#9A3412" font-family="Arial, sans-serif" font-size="13" font-weight="800">kling-v2-5-turbo</text>
    <rect x="344" y="22" width="210" height="28" rx="14" fill="#FED7AA"/>
    <text x="363" y="41" fill="#9A3412" font-family="Arial, sans-serif" font-size="13" font-weight="800">doubao-seedance-2.0</text>
  </g>
</svg>
